<?xml version="1.0" encoding="UTF-8"?>
<svg width="128px" height="128px" viewBox="0 0 128 128" version="1.1" xmlns="http://www.w3.org/2000/svg" xmlns:xlink="http://www.w3.org/1999/xlink">
    <!-- Generator: Sketch 47.1 (45422) - http://www.bohemiancoding.com/sketch -->
    <title>ako-icon</title>
    <desc>Created with Sketch.</desc>
    <defs></defs>
    <g id="Logo" stroke="none" stroke-width="1" fill="none" fill-rule="evenodd">
        <g id="ako-icon" fill="#CA5237">
            <g id="Group" transform="translate(4.000000, 4.000000)">
                <path d="M60.1788076,5.18860072e-05 C61.1419278,0.00605120559 62.1050479,0.0290756213 63.0665466,0.0778808967 C65.1435785,0.183112205 67.215746,0.396331266 69.2716995,0.71672736 C74.8055867,1.57965652 80.2146251,3.22671296 85.2896521,5.59449846 C88.6151729,7.14637651 91.7980094,9.00519272 94.7862761,11.1377076 C98.3128523,13.6554761 101.568652,16.5541203 104.47747,19.7665127 C106.395603,21.885894 108.164566,24.1416382 109.764902,26.5116937 C111.79167,29.5145963 113.54604,32.7003972 114.998828,36.0194802 C116.936418,40.4463295 118.330834,45.1081251 119.144784,49.8714227 C120.420837,57.3504663 120.268424,65.0722392 118.690788,72.4938839 C118.079515,75.3678823 117.255836,78.1963183 116.22786,80.9487088 C114.974506,84.304112 113.416327,87.5460146 111.582508,90.6228548 C110.160527,93.0113948 108.571541,95.3008648 106.831763,97.4701863 C104.599076,100.255654 102.118312,102.84282 99.4300068,105.191635 C96.7271091,107.552773 93.8134274,109.671992 90.7327401,111.515566 C87.8206799,113.259585 84.7594496,114.755361 81.5928273,115.980519 C78.6045606,117.136767 75.5238733,118.051258 72.3896793,118.711993 C69.6916458,119.280307 66.9563197,119.661021 64.2080224,119.852999 C63.2351737,119.9211 62.2607037,119.964716 61.2846122,119.985308 C60.853316,119.994551 60.4220198,120.000874 59.9891022,119.999901 C59.9874807,119.999901 59.9858593,119.998929 59.9842379,119.998929 C59.9826165,119.998929 59.9809951,119.999901 59.9777523,119.999901 C59.5140277,120.000226 59.0503032,119.994064 58.5865787,119.983201 C57.7710073,119.96423 56.9554359,119.929693 56.1398644,119.878131 C54.1730888,119.753605 52.2111774,119.531144 50.2654802,119.212531 C45.0347974,118.355926 39.9208564,116.796589 35.1003915,114.589812 C32.2612949,113.289581 29.5227261,111.766889 26.9219774,110.040382 C23.19921,107.570284 19.752083,104.686881 16.6632887,101.459085 C14.5619356,99.2625236 12.6243454,96.9077096 10.8780822,94.420262 C8.53675981,91.0890182 6.53431305,87.5203959 4.91614151,83.7846034 C3.68386658,80.9381695 2.67210401,77.9955843 1.89706794,74.9918709 C1.16743147,72.1670021 0.646957458,69.2883016 0.338888726,66.3872252 C-0.361562284,59.8122952 0.0243343377,53.1217567 1.49171435,46.6739475 C2.27161466,43.248336 3.35634088,39.8927706 4.72643602,36.6580024 C6.09166693,33.4347463 7.74226676,30.3326117 9.64905007,27.3968365 C12.8481006,22.471233 16.770302,18.0190893 21.2502699,14.2208714 C25.726995,10.4262207 30.7566224,7.28727945 36.1380967,4.94673409 C40.7461564,2.94296135 45.6055352,1.52436549 50.5686846,0.738454625 C52.6035597,0.416112806 54.6546489,0.19965087 56.7122237,0.0879338106 C57.6737224,0.0358856597 58.6352212,0.00978051235 59.5967199,0.00134903619 C59.7896682,5.18860072e-05 59.9842379,-0.000110257765 60.1788076,5.18860072e-05 Z M59.8251423,8.40002599 C58.942215,8.40546757 58.0575324,8.42793602 57.1746051,8.47568149 C55.5017826,8.56625744 53.8342261,8.73775493 52.1789568,8.9903495 C47.5642135,9.69424403 43.0477683,11.0339256 38.7946215,12.9590157 C35.9229136,14.2592019 33.1705676,15.8242701 30.5849773,17.6261348 C28.2784834,19.2329803 26.1018832,21.027648 24.0850175,22.9857387 C21.8943748,25.1112895 19.8915516,27.4297531 18.1081438,29.9060224 C16.5950557,32.0077005 15.2381913,34.2231251 14.0551038,36.527897 C12.0838764,40.3712313 10.6006288,44.4640006 9.65275452,48.6784155 C8.30993268,54.6474762 8.04663428,60.8559663 8.86285932,66.9187626 C9.09456191,68.6383014 9.41227532,70.3460794 9.81599953,72.0333199 C9.99679777,72.7812736 10.1933939,73.524839 10.4040326,74.2641916 C10.6743523,75.2010208 10.9710018,76.1299509 11.2939812,77.0495777 C11.9100995,78.8061544 12.6227605,80.5290284 13.4266983,82.2081943 C14.7484562,84.9700587 16.31947,87.6130861 18.1081438,90.0976056 C19.9213921,92.6147745 21.9610771,94.9690472 24.1938475,97.1232102 C26.6442779,99.4874884 29.326411,101.611108 32.1910976,103.45124 C34.695943,105.05984 37.339459,106.452007 40.0847836,107.604568 C43.3514391,108.975846 46.7585204,110.006235 50.2375699,110.675198 C53.3989061,111.283427 56.6181678,111.590437 59.8374296,111.59974 C63.3252557,111.609746 66.8148372,111.271139 70.2342058,110.580234 C73.9063408,109.838073 77.4959756,108.691655 80.9188548,107.167662 C85.1930655,105.264514 89.2039778,102.77508 92.8111659,99.7953764 C96.2340451,96.9683885 99.2918172,93.7023881 101.887939,90.1014674 C103.845124,87.3871728 105.537255,84.4822475 106.932737,81.4407561 C108.063165,78.9767742 108.996996,76.4234451 109.7237,73.8118384 C110.408276,71.347681 110.908543,68.8320918 111.217479,66.2933321 C111.7353,62.0592573 111.726523,57.7611123 111.196416,53.5287929 C110.938383,51.4741581 110.555723,49.4353215 110.05019,47.4272035 C109.290135,44.4015102 108.250984,41.4458553 106.953801,38.6086865 C105.704011,35.8749076 104.211987,33.2513645 102.505813,30.7770261 C100.708363,28.1724408 98.6721883,25.7326827 96.4341519,23.4972471 C93.8661148,20.934088 91.0295134,18.6401993 87.9840286,16.6668371 C85.603811,15.1242374 83.0972103,13.7775344 80.4958221,12.6470903 C76.5007077,10.9112268 72.2844226,9.68810031 67.9803715,9.01667972 C66.2671765,8.74951577 64.5416943,8.56941707 62.8109462,8.47568149 C62.0368489,8.4339042 61.2627516,8.41143575 60.4886543,8.40248348 C60.2674837,8.40055259 60.046313,8.39985045 59.8251423,8.40002599 Z" id="Fill-6"></path>
                <path d="M69.1351119,16.5714286 C52.1017212,16.5714286 38.2857143,30.3872459 38.2857143,47.4286489 C38.2857143,64.4700519 52.1017212,78.2857143 69.1351119,78.2857143 C86.1685026,78.2857143 100,64.4700519 100,47.4286489 C100,30.3872459 86.1685026,16.5714286 69.1351119,16.5714286 Z M79.3449225,49.8327737 C73.7141136,49.8327737 69.1351119,45.2680347 69.1351119,39.6383242 C69.1351119,34.0008685 73.7141136,29.4362844 79.3449225,29.4362844 C84.9741824,29.4362844 89.5547332,34.0008685 89.5547332,39.6383242 C89.5547332,45.2680347 84.9741824,49.8327737 79.3449225,49.8327737 Z" id="Fill-7"></path>
            </g>
        </g>
    </g>
</svg>