<?xml version="1.0" standalone="no"?>
<!DOCTYPE svg PUBLIC "-//W3C//DTD SVG 20010904//EN"
 "http://www.w3.org/TR/2001/REC-SVG-20010904/DTD/svg10.dtd">
<svg version="1.0" xmlns="http://www.w3.org/2000/svg"
 width="686.000000pt" height="600.000000pt" viewBox="0 0 686.000000 600.000000"
 preserveAspectRatio="xMidYMid meet">
<metadata>
Created by potrace 1.15, written by Peter Selinger 2001-2017
</metadata>
<g transform="translate(0.000000,600.000000) scale(0.100000,-0.100000)"
fill="#5a5a5a" stroke="none">
<path d="M1800 4952 c-888 -488 -1624 -893 -1635 -899 -16 -10 716 -12 3270
-13 1847 0 3285 4 3280 9 -10 8 -3292 1791 -3297 1791 -2 0 -730 -400 -1618
-888z"/>
<path d="M300 3591 l0 -220 38 -7 c227 -40 308 -69 361 -129 63 -73 61 -22 61
-1296 0 -1144 0 -1159 -21 -1213 -14 -39 -35 -69 -73 -103 -63 -58 -119 -78
-263 -94 l-103 -11 0 -199 0 -199 985 0 985 0 0 200 0 200 -39 0 c-63 0 -213
29 -256 50 -63 31 -113 78 -143 134 l-27 51 0 1185 0 1185 21 45 c54 115 158
166 397 195 l47 6 -2 217 -3 217 -982 3 -983 2 0 -219z"/>
<path d="M2460 3590 l0 -220 23 -4 c12 -3 63 -12 112 -21 168 -30 242 -70 290
-157 l30 -53 0 -1185 0 -1185 -24 -52 c-49 -108 -134 -159 -300 -179 -64 -8
-122 -16 -128 -19 -10 -3 -13 -53 -13 -200 l0 -195 985 0 985 0 0 199 0 198
-77 7 c-87 8 -182 30 -226 53 -56 29 -116 93 -136 147 -19 51 -20 87 -21 1212
-2 1279 -5 1217 60 1296 52 62 216 127 325 128 17 0 40 3 53 6 22 6 22 7 22
225 l0 219 -980 0 -980 0 0 -220z"/>
<path d="M4620 3590 l0 -220 23 -4 c12 -3 71 -14 130 -26 60 -11 130 -32 157
-45 60 -30 114 -93 129 -148 8 -30 12 -374 14 -1202 2 -1319 8 -1222 -81
-1312 -65 -64 -124 -87 -264 -103 l-118 -12 0 -199 0 -199 985 0 985 0 0 198
0 198 -104 12 c-167 18 -259 63 -318 155 l-33 52 -8 750 c-10 974 -5 1604 13
1665 17 55 91 133 154 160 45 19 160 45 249 55 l47 6 0 220 0 219 -980 0 -980
0 0 -220z"/>
</g>
</svg>
